<svg version="1.1" xmlns="http://www.w3.org/2000/svg" xmlns:xlink="http://www.w3.org/1999/xlink" viewBox="0 0 172 172"><g fill="none" fill-rule="nonzero" stroke="none" stroke-width="1" stroke-linecap="butt" stroke-linejoin="miter" stroke-miterlimit="10" stroke-dasharray="" stroke-dashoffset="0" font-family="none" font-weight="none" font-size="none" text-anchor="none" style="mix-blend-mode: normal"><path d="M0,172v-172h172v172z" fill="none"></path><g fill="#ffffff"><path d="M41.99219,23.51563c-10.18798,0 -18.47656,8.28859 -18.47656,18.47656v87.34375c0,10.18798 8.28859,18.47656 18.47656,18.47656h87.34375c10.18798,0 18.47656,-8.28859 18.47656,-18.47656v-87.34375c0,-10.18798 -8.28859,-18.47656 -18.47656,-18.47656zM41.99219,30.23438h87.34375c6.48326,0 11.75781,5.27455 11.75781,11.75781v87.34375c0,6.48326 -5.27455,11.75781 -11.75781,11.75781h-87.34375c-6.48326,0 -11.75781,-5.27455 -11.75781,-11.75781v-87.34375c0,-6.48326 5.27455,-11.75781 11.75781,-11.75781zM122.61719,36.95313c-6.48326,0 -11.75781,5.27455 -11.75781,11.75781c0,6.48326 5.27455,11.75781 11.75781,11.75781c6.48326,0 11.75781,-5.27455 11.75781,-11.75781c0,-6.48326 -5.27455,-11.75781 -11.75781,-11.75781zM122.61719,43.67188c2.77854,0 5.03906,2.26052 5.03906,5.03906c0,2.77854 -2.26052,5.03906 -5.03906,5.03906c-2.77854,0 -5.03906,-2.26052 -5.03906,-5.03906c0,-2.77854 2.26052,-5.03906 5.03906,-5.03906zM85.66406,50.39063c-19.44977,0 -35.27344,15.82366 -35.27344,35.27344c0,19.44977 15.82366,35.27344 35.27344,35.27344c19.44977,0 35.27344,-15.82366 35.27344,-35.27344c0,-19.44977 -15.82366,-35.27344 -35.27344,-35.27344zM85.66406,57.10938c15.74505,0 28.55469,12.80963 28.55469,28.55469c0,15.74505 -12.80963,28.55469 -28.55469,28.55469c-15.74505,0 -28.55469,-12.80963 -28.55469,-28.55469c0,-15.74505 12.80963,-28.55469 28.55469,-28.55469z"></path></g></g></svg>